#!OML:ASF C:\Vicon Data\Big\jianyuan-11\jianyuan\Session 1\male.ASF
:FULLY-SPECIFIED
:DEGREES
195
root -14.252328 16.401211 -9.485205 -17.362880 -41.649376 16.176592
lowerback 3.180684 2.658175 -5.390014 
upperback 6.191122 3.827554 -1.164443 
thorax 4.380853 1.806482 1.827161 
lowerneck -13.065694 -6.765234 -11.048015 
upperneck 24.619044 -8.969327 10.110265 
head 11.095482 -3.755607 4.345447 
rclavicle 0.000000 0.000000 
rhumerus -45.486102 -29.530652 -71.016312 
rradius 37.151864 
rwrist -0.544197 
rhand -17.374698 -0.612901 
rfingers 0.000000 
rthumb 8.873747 -30.406336 
lclavicle 0.000000 0.000000 
lhumerus -23.952206 28.585825 84.684073 
lradius 29.709073 
lwrist -23.818543 
lhand -15.568438 -9.535590 
lfingers 0.000000 
lthumb 10.616460 20.176264 
rfemur -26.440831 -4.411088 13.684801 
rtibia 76.379769 
rfoot 5.064556 -2.939603 
rtoes 2.308155 
lfemur -2.448521 -1.919382 -30.967942 
ltibia 25.921152 
lfoot -13.753130 -1.119938 
ltoes -1.534590 
196
root -14.301475 16.405443 -9.429986 -17.339372 -41.720670 16.146307
lowerback 3.203694 2.575083 -5.365154 
upperback 6.197815 3.714069 -1.142320 
thorax 4.382433 1.750026 1.835667 
lowerneck -13.121777 -6.725320 -11.159971 
upperneck 24.657666 -8.923239 10.261377 
head 11.129025 -3.726115 4.428565 
rclavicle 0.000000 0.000000 
rhumerus -45.648840 -29.670102 -70.800336 
rradius 37.185099 
rwrist -0.529104 
rhand -17.332154 -0.614297 
rfingers 0.000000 
rthumb 8.914799 -30.405971 
lclavicle 0.000000 0.000000 
lhumerus -23.387741 27.557507 85.295089 
lradius 30.230275 
lwrist -22.911140 
lhand -15.475968 -9.621084 
lfingers 0.000000 
lthumb 10.705639 20.086129 
rfemur -27.042932 -4.240759 13.660490 
rtibia 75.740552 
rfoot 4.607464 -3.084187 
rtoes 2.269302 
lfemur -2.029595 -1.815485 -30.942790 
ltibia 25.616072 
lfoot -13.801648 -1.139656 
ltoes -1.289752 
197
root -14.348158 16.409029 -9.374873 -17.385503 -41.697861 16.279703
lowerback 3.219178 2.476801 -5.468793 
upperback 6.190727 3.581920 -1.158142 
thorax 4.371517 1.680347 1.876139 
lowerneck -13.212589 -6.678770 -11.213286 
upperneck 24.716758 -8.863348 10.349390 
head 11.168885 -3.690892 4.480159 
rclavicle 0.000000 0.000000 
rhumerus -45.739673 -29.712208 -70.609046 
rradius 37.161103 
rwrist -0.474772 
rhand -17.381903 -0.697844 
rfingers 0.000000 
rthumb 8.866822 -30.491540 
lclavicle 0.000000 0.000000 
lhumerus -22.848069 26.523050 85.916215 
lradius 30.825848 
lwrist -22.022068 
lhand -15.382984 -9.464545 
lfingers 0.000000 
lthumb 10.795348 20.238020 
rfemur -27.660844 -4.187801 13.441340 
rtibia 75.077491 
rfoot 4.224305 -3.261301 
rtoes 2.517651 
lfemur -1.646662 -1.788790 -31.092309 
ltibia 25.309401 
lfoot -13.953178 -1.125919 
ltoes -1.342537 
198
root -14.395553 16.412388 -9.318155 -17.497175 -41.689919 16.499971
lowerback 3.201619 2.399759 -5.650809 
upperback 6.195101 3.481536 -1.172901 
thorax 4.385832 1.622379 1.962980 
lowerneck -13.318364 -6.641284 -11.119369 
upperneck 24.777916 -8.800388 10.241972 
head 11.194158 -3.662895 4.432943 
rclavicle 0.000000 0.000000 
rhumerus -45.816359 -29.722275 -70.381547 
rradius 37.129103 
rwrist -0.463436 
rhand -17.405116 -0.713492 
rfingers 0.000000 
rthumb 8.844421 -30.508139 
lclavicle 0.000000 0.000000 
lhumerus -22.331509 25.486783 86.542346 
lradius 31.446427 
lwrist -21.212773 
lhand -15.333008 -9.195577 
lfingers 0.000000 
lthumb 10.843587 20.504484 
rfemur -28.237486 -4.152120 13.149530 
rtibia 74.378893 
rfoot 3.860779 -3.464442 
rtoes 2.553859 
lfemur -1.253577 -1.797671 -31.317613 
ltibia 25.018075 
lfoot -14.192329 -1.100595 
ltoes -1.464461 
199
root -14.445298 16.415167 -9.262483 -17.528145 -41.758036 16.575094
lowerback 3.200182 2.336631 -5.712153 
upperback 6.186655 3.395838 -1.168435 
thorax 4.380876 1.576640 2.001696 
lowerneck -13.331297 -6.617999 -10.993302 
upperneck 24.772296 -8.766253 10.119137 
head 11.176998 -3.650330 4.369685 
rclavicle 0.000000 0.000000 
rhumerus -45.976708 -29.810501 -70.127024 
rradius 37.121865 
rwrist -0.471920 
rhand -17.378473 -0.642717 
rfingers 0.000000 
rthumb 8.870094 -30.436266 
lclavicle 0.000000 0.000000 
lhumerus -21.875910 24.371432 87.086393 
lradius 32.086441 
lwrist -20.365607 
lhand -15.285029 -8.971101 
lfingers 0.000000 
lthumb 10.889871 20.726499 
rfemur -28.773197 -4.039663 13.025074 
rtibia 73.620218 
rfoot 3.467691 -3.813401 
rtoes 2.700229 
lfemur -0.848372 -1.759551 -31.384322 
ltibia 24.715147 
lfoot -14.318833 -1.098667 
ltoes -1.359436 
